<?xml version="1.0" encoding="UTF-8" standalone="no"?>
<svg
   xmlns:dc="http://purl.org/dc/elements/1.1/"
   xmlns:cc="http://creativecommons.org/ns#"
   xmlns:rdf="http://www.w3.org/1999/02/22-rdf-syntax-ns#"
   xmlns:svg="http://www.w3.org/2000/svg"
   xmlns="http://www.w3.org/2000/svg"
   xmlns:sodipodi="http://sodipodi.sourceforge.net/DTD/sodipodi-0.dtd"
   xmlns:inkscape="http://www.inkscape.org/namespaces/inkscape"
   version="1.1"
   id="svg2"
   xml:space="preserve"
   width="1040"
   height="261.33334"
   viewBox="0 0 1040 261.33334"
   sodipodi:docname="3ds-max.eps"><metadata
     id="metadata8"><rdf:RDF><cc:Work
         rdf:about=""><dc:format>image/svg+xml</dc:format><dc:type
           rdf:resource="http://purl.org/dc/dcmitype/StillImage" /></cc:Work></rdf:RDF></metadata><defs
     id="defs6" /><sodipodi:namedview
     pagecolor="#ffffff"
     bordercolor="#666666"
     borderopacity="1"
     objecttolerance="10"
     gridtolerance="10"
     guidetolerance="10"
     inkscape:pageopacity="0"
     inkscape:pageshadow="2"
     inkscape:window-width="640"
     inkscape:window-height="480"
     id="namedview4" /><g
     id="g10"
     inkscape:groupmode="layer"
     inkscape:label="ink_ext_XXXXXX"
     transform="matrix(1.3333333,0,0,-1.3333333,0,261.33333)"><g
       id="g12"
       transform="scale(0.1)"><path
         d="m 2631.33,582.992 c 69.28,-23.504 134.84,-32.164 210.3,-32.164 171.95,0 338.95,76.699 338.95,261.02 0,105.148 -82.88,171.953 -184.32,185.558 98.97,24.734 168.24,90.304 168.24,195.454 0,158.34 -150.92,209.06 -295.66,209.06 -74.21,0 -145.97,-12.37 -215.24,-35.87 l 7.42,-101.44 c 59.38,24.74 129.89,39.59 189.27,39.59 89.07,0 181.85,-28.46 181.85,-122.47 0,-107.63 -85.36,-141.03 -200.41,-141.03 h -92.78 v -92.774 h 108.87 c 98.96,0 196.69,-29.692 196.69,-134.84 0,-113.813 -95.26,-160.816 -204.12,-160.816 -63.09,0 -138.55,11.128 -201.64,37.109 z m 870.89,706.358 h 105.15 c 194.22,0 294.42,-111.33 294.42,-300.604 0,-218.961 -118.76,-324.109 -331.53,-324.109 h -68.04 z m 81.64,-724.912 c 272.16,0 458.95,137.312 458.95,424.308 0,270.914 -155.87,400.804 -421.83,400.804 h -253.6 V 564.438 Z m 587.61,19.789 c 70.51,-23.5 147.21,-33.399 211.53,-33.399 158.35,0 285.76,76.699 285.76,244.938 0,128.652 -76.69,179.375 -174.42,225.144 l -68.04,30.93 c -60.62,29.69 -115.05,59.37 -115.05,127.41 0,91.55 79.18,121.23 148.45,121.23 55.67,0 118.76,-9.89 171.95,-33.39 l 7.42,108.86 c -56.9,17.32 -118.75,25.97 -186.79,25.97 -128.66,0 -270.92,-66.8 -270.92,-230.09 0,-111.33 66.8,-164.53 147.21,-204.115 l 64.33,-30.926 c 76.69,-35.875 142.26,-70.512 142.26,-148.445 0,-98.965 -79.17,-136.074 -158.34,-136.074 -74.23,0 -134.84,13.605 -199.17,47.003 z m 1130.66,-19.789 v 728.622 l 272.16,-728.622 h 122.47 l 270.91,728.622 V 564.438 h 127.42 V 1389.55 H 5890.98 L 5638.61,711.645 5383.78,1389.55 H 5180.9 V 564.438 Z m 1024.29,0 81.65,216.484 h 382.24 l 79.17,-216.484 h 141.03 L 6686.4,1389.55 H 6516.93 L 6195.29,564.438 Z m 273.39,729.862 157.1,-414.413 h -315.45 z m 566.57,-729.862 237.51,357.507 228.86,-357.507 h 159.58 l -300.6,431.73 274.62,393.382 h -144.73 l -207.83,-317.92 -210.3,317.92 h -154.63 l 273.39,-393.382 -303.08,-431.73 h 147.21"
         style="fill:#231f20;fill-opacity:1;fill-rule:nonzero;stroke:none"
         id="path14" /><path
         d="M 2073.68,1951.29 V 1.46875"
         style="fill:none;stroke:#bfbfbf;stroke-width:29.3036;stroke-linecap:butt;stroke-linejoin:miter;stroke-miterlimit:22.9256;stroke-dasharray:none;stroke-opacity:1"
         id="path16" /><path
         d="m 663.691,1553.27 397.329,380.96 H 175.762 L 9.83984,1555.46 Z"
         style="fill:none;stroke:#231f20;stroke-width:0.2835;stroke-linecap:butt;stroke-linejoin:miter;stroke-miterlimit:22.9256;stroke-dasharray:none;stroke-opacity:1"
         id="path18" /><path
         d="M 9.83984,1555.46 478.125,1377.53 663.691,1553.27"
         style="fill:none;stroke:#231f20;stroke-width:0.2835;stroke-linecap:butt;stroke-linejoin:miter;stroke-miterlimit:22.9256;stroke-dasharray:none;stroke-opacity:1"
         id="path20" /><path
         d="M 662.801,1305.48 478.125,1377.53 38.2227,969.281 468.305,570.855 l 192.113,75.321 3.273,907.094"
         style="fill:none;stroke:#231f20;stroke-width:0.2835;stroke-linecap:butt;stroke-linejoin:miter;stroke-miterlimit:22.9256;stroke-dasharray:none;stroke-opacity:1"
         id="path22" /><path
         d="M 663.691,1553.27 1539.14,980.199 1061.02,1934.23"
         style="fill:none;stroke:#231f20;stroke-width:0.2835;stroke-linecap:butt;stroke-linejoin:miter;stroke-miterlimit:22.9256;stroke-dasharray:none;stroke-opacity:1"
         id="path24" /><path
         d="M 1539.14,980.199 662.801,1305.48"
         style="fill:none;stroke:#231f20;stroke-width:0.2835;stroke-linecap:butt;stroke-linejoin:miter;stroke-miterlimit:22.9256;stroke-dasharray:none;stroke-opacity:1"
         id="path26" /><path
         d="M 660.418,646.176 658.234,394.027"
         style="fill:none;stroke:#231f20;stroke-width:0.2835;stroke-linecap:butt;stroke-linejoin:miter;stroke-miterlimit:22.9256;stroke-dasharray:none;stroke-opacity:1"
         id="path28" /><path
         d="M 1062.12,18.5234 468.305,570.855 6.56641,397.301 174.672,18.5234 Z"
         style="fill:none;stroke:#231f20;stroke-width:0.2835;stroke-linecap:butt;stroke-linejoin:miter;stroke-miterlimit:22.9256;stroke-dasharray:none;stroke-opacity:1"
         id="path30" /><path
         d="M 1062.12,18.5234 1539.14,980.199 658.234,394.027"
         style="fill:none;stroke:#231f20;stroke-width:0.2835;stroke-linecap:butt;stroke-linejoin:miter;stroke-miterlimit:22.9256;stroke-dasharray:none;stroke-opacity:1"
         id="path32" /><path
         d="M 1539.14,980.199 660.418,646.176"
         style="fill:none;stroke:#231f20;stroke-width:0.2835;stroke-linecap:butt;stroke-linejoin:miter;stroke-miterlimit:22.9256;stroke-dasharray:none;stroke-opacity:1"
         id="path34" /><path
         d="M 658.234,394.027 6.56641,397.301"
         style="fill:none;stroke:#231f20;stroke-width:2.16;stroke-linecap:butt;stroke-linejoin:miter;stroke-miterlimit:22.9256;stroke-dasharray:none;stroke-opacity:1"
         id="path36" /><path
         d="M 662.801,1305.48 1539.14,980.199 663.691,1553.27 Z"
         style="fill:#141614;fill-opacity:1;fill-rule:evenodd;stroke:none"
         id="path38" /><path
         d="m 1539.14,980.199 -878.722,-334.023 -2.18,-251.985 0.102,-0.093 880.8,586.101"
         style="fill:#151716;fill-opacity:1;fill-rule:evenodd;stroke:none"
         id="path40" /><path
         d="M 663.691,1553.27 1539.14,980.199 1061.02,1934.23 Z"
         style="fill:#135f60;fill-opacity:1;fill-rule:evenodd;stroke:none"
         id="path42" /><path
         d="M 1539.14,980.199 658.34,394.098 1062.12,18.5234 Z"
         style="fill:#133d3e;fill-opacity:1;fill-rule:evenodd;stroke:none"
         id="path44" /><path
         d="M 660.418,646.176 1539.14,980.199 662.801,1305.48 Z"
         style="fill:#114e52;fill-opacity:1;fill-rule:evenodd;stroke:none"
         id="path46" /><path
         d="m 660.418,646.176 2.383,659.304 -184.676,72.05 L 38.2227,969.281 468.305,570.855 660.418,646.176"
         style="fill:#1a6b6d;fill-opacity:1;fill-rule:evenodd;stroke:none"
         id="path48" /><path
         d="m 478.125,1377.53 184.676,-72.05 0.89,247.79 z"
         style="fill:#16201f;fill-opacity:1;fill-rule:evenodd;stroke:none"
         id="path50" /><path
         d="M 660.418,646.176 468.305,570.855 658.238,394.191 Z"
         style="fill:#171f1f;fill-opacity:1;fill-rule:evenodd;stroke:none"
         id="path52" /><path
         d="M 658.234,394.027 6.56641,397.301 174.672,18.5234 h 887.448 l -403.78,375.5746 -0.106,-0.071"
         style="fill:#166568;fill-opacity:1;fill-rule:evenodd;stroke:none"
         id="path54" /><path
         d="m 9.83984,1555.46 653.85116,-2.19 397.329,380.96 H 175.762 L 9.83984,1555.46"
         style="fill:#1e797e;fill-opacity:1;fill-rule:evenodd;stroke:none"
         id="path56" /><path
         d="M 663.691,1553.27 9.83984,1555.46 478.125,1377.53 Z"
         style="fill:#1c3232;fill-opacity:1;fill-rule:evenodd;stroke:none"
         id="path58" /><path
         d="M 468.305,570.855 6.56641,397.301 658.234,394.027 l 0.004,0.164 -189.933,176.664"
         style="fill:#1b2828;fill-opacity:1;fill-rule:evenodd;stroke:none"
         id="path60" /></g></g></svg>
